<?xml version="1.0" standalone="no"?>
<!DOCTYPE svg PUBLIC "-//W3C//DTD SVG 20010904//EN"
 "http://www.w3.org/TR/2001/REC-SVG-20010904/DTD/svg10.dtd">
<svg version="1.0" xmlns="http://www.w3.org/2000/svg"
 width="549.000000pt" height="556.000000pt" viewBox="0 0 549.000000 556.000000"
 preserveAspectRatio="xMidYMid meet">

<g transform="translate(0.000000,556.000000) scale(0.100000,-0.100000)"
fill="#000000" stroke="none">
<path d="M1050 4332 l0 -688 143 28 c78 15 212 40 297 57 496 95 792 156 768
159 -16 2 -28 4 -28 5 0 2 -9 65 -20 142 -37 269 -36 621 3 886 l13 86 -119 7
c-66 3 -331 6 -589 6 l-468 0 0 -688z"/>
<path d="M5255 4238 c-37 -8 -240 -48 -425 -83 -41 -7 -230 -43 -420 -80 -190
-36 -379 -72 -420 -80 -41 -7 -374 -70 -740 -139 -691 -130 -877 -163 -921
-165 -34 -1 -249 -51 -664 -155 -187 -46 -402 -99 -477 -118 l-138 -33 0 -992
0 -993 1708 1 1707 0 -100 35 c-310 109 -541 223 -794 393 l-84 56 82 3 c92 3
109 16 72 55 -19 21 -21 35 -24 222 l-2 200 -3 -207 c-2 -198 -1 -208 18 -218
11 -6 20 -17 20 -25 0 -13 -24 -15 -145 -15 -151 0 -163 4 -129 41 19 21 32 5
-282 329 -77 80 -161 168 -187 195 l-47 50 0 -282 c0 -272 1 -283 20 -295 11
-7 20 -18 20 -25 0 -10 -33 -13 -135 -13 -102 0 -135 3 -135 13 0 7 9 18 20
25 19 12 20 23 20 416 0 341 -2 405 -15 416 -8 6 -18 10 -22 7 -4 -3 -8 5 -8
16 0 22 2 22 160 19 87 -2 157 -1 154 2 -3 3 -71 6 -153 7 l-148 1 -29 46
c-76 119 -269 550 -269 599 0 6 -10 13 -22 15 -13 2 25 17 87 35 103 29 1807
455 2530 633 182 44 344 84 360 89 40 12 10 11 -40 -1z m-2975 -1439 c118 -25
189 -110 190 -227 0 -75 -24 -128 -75 -167 l-34 -27 46 -31 c28 -19 56 -49 70
-76 43 -82 24 -211 -40 -279 -32 -35 -104 -69 -172 -81 -70 -13 -711 -15 -719
-3 -3 5 6 19 19 30 l25 22 0 395 0 396 -25 23 c-13 13 -22 26 -18 29 11 12
678 8 733 -4z m1012 -754 c45 -49 79 -88 76 -85 -54 41 -433 434 -478 495 -26
36 284 -281 402 -410z"/>
<path d="M1790 2551 l0 -101 195 0 c220 0 253 7 274 59 17 39 7 92 -20 117
-19 17 -42 19 -235 22 l-214 3 0 -100z"/>
<path d="M1790 2178 l0 -118 193 0 c210 0 256 8 287 47 22 28 27 85 10 127
-17 46 -40 51 -273 56 l-217 5 0 -117z"/>
<path d="M2303 3893 c9 -2 23 -2 30 0 6 3 -1 5 -18 5 -16 0 -22 -2 -12 -5z"/>
<path d="M2924 2765 c-3 -8 -4 -19 -2 -24 1 -5 82 -92 178 -192 96 -100 207
-216 247 -258 l72 -76 -2 180 -1 180 -3 -167 -3 -168 -138 143 c-75 78 -184
190 -241 250 -78 81 -102 112 -98 127 6 23 -1 27 -9 5z"/>
<path d="M3819 1943 c-13 -16 -12 -17 4 -4 16 13 21 21 13 21 -2 0 -10 -8 -17
-17z"/>
<path d="M4060 1950 c0 -5 5 -10 11 -10 5 0 7 5 4 10 -3 6 -8 10 -11 10 -2 0
-4 -4 -4 -10z"/>
<path d="M3878 1893 c39 -2 105 -2 145 0 39 1 7 3 -73 3 -80 0 -112 -2 -72 -3z"/>
<path d="M3130 1110 c0 -12 9 -15 40 -12 l40 4 0 -91 c0 -84 1 -91 20 -91 19
0 20 7 20 91 l0 91 40 -4 c31 -3 40 0 40 12 0 12 -17 15 -100 15 -83 0 -100
-3 -100 -15z"/>
<path d="M4568 1123 l-87 -4 -3 -99 -3 -100 93 0 c75 0 92 3 92 15 0 12 -15
15 -76 15 l-75 0 3 32 c3 31 4 31 51 31 34 0 47 3 47 13 0 10 -14 14 -51 14
-49 0 -50 1 -47 28 3 27 4 27 76 27 62 0 72 2 72 18 0 9 -1 16 -2 15 -2 -1
-42 -4 -90 -5z"/>
<path d="M1060 1019 l0 -102 84 5 c49 2 91 10 100 17 20 17 21 70 2 77 -12 5
-12 9 -1 31 14 26 10 52 -9 65 -6 4 -48 8 -93 8 l-83 0 0 -101z m148 72 c8 -5
12 -17 10 -27 -3 -16 -14 -20 -61 -22 l-57 -3 0 31 c0 29 1 30 48 30 26 0 53
-4 60 -9z m16 -97 c11 -29 -13 -44 -70 -44 -53 0 -54 0 -54 30 0 30 0 30 59
30 45 0 60 -4 65 -16z"/>
<path d="M1370 1108 c0 -7 -20 -52 -43 -100 -40 -82 -42 -88 -22 -88 14 0 24
10 32 30 10 27 16 30 55 30 47 0 68 -13 68 -42 0 -13 8 -18 28 -18 l29 0 -51
100 c-42 82 -55 100 -73 100 -13 0 -23 -6 -23 -12z m43 -55 c2 -10 8 -26 12
-35 6 -15 2 -18 -29 -18 -41 0 -41 1 -21 40 18 34 30 38 38 13z"/>
<path d="M1558 1020 c-3 -94 -2 -100 17 -100 18 0 20 6 17 70 -2 38 -1 70 3
70 7 0 119 -118 123 -131 2 -5 13 -9 25 -9 21 0 22 3 19 100 -3 79 -6 100 -18
100 -11 0 -14 -15 -14 -65 0 -36 -4 -65 -8 -65 -4 0 -34 29 -66 65 -32 36 -66
65 -76 65 -17 0 -19 -11 -22 -100z"/>
<path d="M1857 1109 c-27 -16 -48 -72 -41 -108 11 -51 47 -76 112 -76 43 0 60
-4 70 -18 11 -14 17 -15 28 -6 13 10 13 14 0 28 -12 14 -12 20 -1 41 22 40 18
85 -11 119 -23 28 -31 31 -82 31 -32 0 -65 -5 -75 -11z m117 -30 c18 -14 26
-30 26 -52 0 -38 -16 -67 -27 -51 -10 13 -39 24 -47 17 -3 -3 5 -14 17 -24
l22 -18 -34 -1 c-72 0 -106 76 -56 125 30 30 64 32 99 4z"/>
<path d="M2090 1042 c0 -105 9 -117 93 -117 90 0 97 8 97 111 0 68 -3 84 -15
84 -12 0 -15 -15 -15 -73 0 -84 -8 -97 -61 -97 -56 0 -69 19 -69 101 0 55 -3
69 -15 69 -12 0 -15 -15 -15 -78z"/>
<path d="M2345 1020 l0 -100 93 0 c75 0 92 3 92 15 0 12 -15 15 -76 15 l-75 0
3 32 c3 32 4 32 51 29 37 -2 47 1 47 13 0 12 -11 16 -50 16 -49 0 -50 1 -50
31 l0 31 70 -4 c51 -2 70 0 70 10 0 9 -24 12 -87 12 l-88 0 0 -100z"/>
<path d="M2658 1020 c-3 -94 -2 -100 17 -100 18 0 20 6 17 70 -2 38 0 70 5 69
4 0 35 -31 68 -69 35 -40 68 -69 80 -69 19 -1 20 4 17 99 -3 79 -6 100 -18
100 -11 0 -14 -15 -14 -65 0 -36 -4 -65 -9 -65 -4 0 -35 29 -67 65 -83 92 -92
89 -96 -35z"/>
<path d="M2959 1028 c-24 -51 -45 -96 -47 -100 -2 -5 8 -8 23 -8 14 0 24 3 22
8 -3 4 -1 17 4 30 7 19 16 22 58 22 40 0 52 -4 61 -20 6 -11 8 -25 5 -30 -4
-6 7 -10 24 -10 l30 0 -47 99 c-63 133 -73 133 -133 9z m84 7 l17 -35 -35 0
c-38 0 -41 6 -23 45 15 33 21 32 41 -10z"/>
<path d="M3368 1020 c-3 -94 -2 -100 17 -100 19 0 20 7 20 100 0 87 -2 100
-17 100 -14 0 -17 -14 -20 -100z"/>
<path d="M3485 1095 c-34 -33 -35 -103 -2 -140 30 -35 99 -45 146 -21 56 29
68 104 25 155 -23 28 -31 31 -85 31 -50 0 -64 -4 -84 -25z m137 -25 c24 -25
29 -36 24 -58 -15 -63 -97 -85 -135 -36 -28 35 -26 69 4 99 33 34 70 32 107
-5z"/>
<path d="M3730 1020 c0 -95 1 -100 21 -100 19 0 20 5 17 70 -2 39 0 70 3 70 3
0 36 -31 73 -70 37 -38 74 -70 82 -70 11 0 14 21 14 100 0 95 -1 100 -21 100
-20 0 -21 -4 -17 -65 2 -36 1 -65 -2 -65 -4 0 -35 29 -69 65 -35 36 -71 65
-82 65 -17 0 -19 -8 -19 -100z"/>
<path d="M4073 1114 c3 -3 -16 -48 -42 -100 l-47 -94 28 0 c17 0 27 4 23 10
-3 5 -1 19 5 30 9 16 21 20 61 20 47 0 50 -1 56 -30 4 -24 10 -30 33 -30 l27
0 -51 100 c-43 85 -55 100 -75 100 -13 0 -22 -3 -18 -6z m46 -76 c13 -38 11
-40 -26 -36 -29 3 -29 3 -16 36 16 40 28 41 42 0z"/>
<path d="M4258 1020 l-3 -100 93 0 c81 0 92 2 92 18 0 15 -9 17 -76 14 l-76
-4 4 86 c3 75 1 86 -14 86 -14 0 -17 -14 -20 -100z"/>
<path d="M1060 649 l0 -101 81 4 c74 3 83 6 105 31 37 44 30 120 -15 154 -9 7
-48 12 -93 13 l-78 0 0 -101z m133 70 c30 -16 37 -28 37 -68 0 -50 -24 -71
-82 -71 l-48 0 0 75 0 75 36 0 c19 0 45 -5 57 -11z"/>
<path d="M1320 730 c0 -12 7 -20 17 -20 14 0 14 -2 -2 -20 -10 -11 -14 -20 -8
-20 15 0 36 47 30 64 -9 23 -37 20 -37 -4z"/>
<path d="M1430 650 c0 -93 1 -100 20 -100 19 0 20 7 20 100 0 93 -1 100 -20
100 -19 0 -20 -7 -20 -100z"/>
<path d="M1548 650 c-3 -94 -2 -100 17 -100 18 0 20 6 17 70 -2 38 0 70 3 70
9 0 125 -123 125 -132 0 -5 10 -8 23 -8 21 0 22 3 22 100 0 89 -2 100 -17 100
-15 0 -18 -10 -18 -65 0 -36 -4 -65 -8 -65 -4 0 -34 29 -67 65 -83 93 -93 89
-97 -35z"/>
<path d="M1851 669 c22 -44 41 -89 42 -100 1 -14 9 -19 30 -19 15 0 26 4 23 8
-2 4 15 49 39 100 l44 92 -25 0 c-13 0 -24 -5 -24 -11 0 -17 -52 -129 -59
-129 -4 0 -20 31 -37 70 -23 57 -33 70 -51 70 -22 0 -21 -3 18 -81z"/>
<path d="M2088 650 l-3 -100 93 0 c75 0 92 3 92 15 0 12 -15 15 -75 15 l-75 0
0 30 c0 29 1 30 50 30 38 0 50 4 50 15 0 11 -12 15 -51 15 -49 0 -50 1 -47 28
3 27 4 27 76 27 51 0 72 4 72 13 0 9 -25 12 -89 12 l-90 0 -3 -100z"/>
<path d="M2346 728 c-34 -48 -9 -82 69 -92 53 -7 71 -18 60 -36 -14 -23 -54
-30 -95 -16 -37 13 -50 12 -50 -4 0 -13 52 -30 93 -30 54 0 87 22 87 59 0 37
-17 50 -80 60 -62 10 -77 22 -55 45 20 20 51 20 89 1 23 -12 31 -13 37 -3 12
20 -29 37 -88 38 -42 0 -55 -4 -67 -22z"/>
<path d="M2560 738 c0 -8 14 -13 37 -13 l38 0 0 -88 c0 -80 2 -87 20 -87 18 0
20 7 20 87 l0 88 38 0 c23 0 37 5 37 13 0 9 -26 12 -95 12 -69 0 -95 -3 -95
-12z"/>
<path d="M2805 650 c0 -93 1 -100 20 -100 19 0 20 7 20 100 0 93 -1 100 -20
100 -19 0 -20 -7 -20 -100z"/>
<path d="M2935 734 c-19 -20 -16 -74 5 -85 8 -4 38 -11 65 -16 40 -6 50 -12
50 -27 0 -32 -48 -41 -95 -19 -37 19 -39 19 -43 2 -6 -22 37 -39 95 -39 49 0
93 38 82 73 -10 34 -17 38 -78 46 -62 9 -71 13 -63 35 10 24 55 31 92 13 29
-14 34 -14 39 -1 13 33 -118 48 -149 18z"/>
<path d="M3170 730 c-42 -42 -13 -84 61 -93 67 -8 82 -22 50 -48 -29 -24 -38
-24 -83 0 -31 15 -38 16 -42 4 -8 -21 -9 -20 25 -32 78 -27 149 -4 149 48 0
37 -17 50 -79 60 -60 9 -69 16 -55 39 15 23 56 27 92 8 25 -13 31 -13 35 -2
14 36 -119 50 -153 16z"/>
<path d="M3400 650 l0 -100 90 0 c73 0 90 3 90 15 0 12 -14 15 -70 15 l-70 0
0 30 c0 29 1 30 50 30 38 0 50 4 50 15 0 11 -12 15 -50 15 -49 0 -50 1 -50 31
l0 31 70 -4 c51 -2 70 0 70 10 0 9 -25 12 -90 12 l-90 0 0 -100z"/>
<path d="M3650 650 c0 -89 2 -100 18 -100 15 0 17 9 14 70 -2 38 0 70 5 70 5
0 24 -30 42 -67 l33 -67 24 39 c13 22 30 52 37 68 20 45 29 31 25 -43 -3 -67
-2 -70 20 -70 21 0 22 3 22 100 l0 100 -27 0 c-24 0 -32 -9 -58 -60 -16 -33
-33 -60 -38 -60 -4 0 -20 27 -35 60 -23 51 -31 59 -54 60 l-28 0 0 -100z"/>
<path d="M3965 650 l0 -100 93 0 c75 0 92 3 92 15 0 12 -15 15 -75 15 l-75 0
0 30 c0 29 1 30 50 30 38 0 50 4 50 15 0 11 -12 15 -51 15 -49 0 -50 1 -47 28
3 26 4 27 71 27 47 0 67 4 67 13 0 9 -24 12 -87 12 l-88 0 0 -100z"/>
<path d="M4215 650 c0 -89 2 -100 18 -100 15 0 17 10 17 70 0 39 3 70 8 69 4
-1 34 -32 67 -69 34 -39 69 -68 80 -69 19 -1 20 4 17 99 -3 79 -6 100 -18 100
-11 0 -14 -15 -14 -65 0 -36 -4 -65 -8 -65 -5 0 -37 29 -71 65 -88 92 -96 89
-96 -35z"/>
<path d="M4460 737 c0 -9 12 -11 40 -9 l40 4 0 -91 c0 -84 1 -91 20 -91 19 0
20 7 20 91 l0 91 40 -4 c28 -2 40 0 40 9 0 10 -26 13 -100 13 -74 0 -100 -3
-100 -13z"/>
</g>
</svg>
